<svg xmlns:rdf="http://www.w3.org/1999/02/22-rdf-syntax-ns#" xmlns="http://www.w3.org/2000/svg" height="300" width="400" version="1.1" xmlns:cc="http://creativecommons.org/ns#" xmlns:dc="http://purl.org/dc/elements/1.1/">
 <g transform="translate(-6834 -1004)">
  <rect style="color:#000000" fill-rule="evenodd" height="144" width="199.9" y="1041" x="6960" fill="#fff"/>
  <g>
   <path style="color:#000000" d="m6934 1016v195h252.2v-195zm226.4 169.2h-200.7l-.0006-143.4h200.7v143.4z" stroke-width=".8896" fill="#144431"/>
   <path style="color:#000000" d="m7088 1091c0-15.65-12.69-28.34-28.34-28.34s-28.34 12.69-28.34 28.34 12.4 33.84 28.34 61.13c15.94-27.29 28.34-45.48 28.34-61.13zm-38.5-.6875c0-5.613 4.55-10.16 10.16-10.16 5.613 0 10.16 4.55 10.16 10.16 0 5.613-4.55 10.16-10.16 10.16-5.613 0-10.16-4.55-10.16-10.16z" stroke-width=".7438" fill="#6bc73d"/>
   <path style="color:#000000" d="m7095 1133h-14.88c-1.418 2.451-2.905 4.977-4.454 7.591h14.65l3.377 6.72h-22.01c-.7401 1.247-1.49 2.512-2.247 3.796h9.474l3.444 8.322h-42.03l3.616-8.322h6.565c-.7577-1.283-1.507-2.548-2.248-3.796h-13.57l-2.729-6.72h12.31c-1.548-2.614-3.035-5.14-4.453-7.591h-14.88l-17.1 34.02h104.3zm-58.82 26.43h-16.03l8.493-16.9 3.484 8.577h7.671zm46.83-8.322h12.59l4.182 8.322h-13.32z" stroke-width=".7438" fill="#4a8b29"/>
  </g>
  <rect style="color:#000000" fill-rule="evenodd" height="107.5" width="178.3" y="1133" x="6872" fill="#fff"/>
  <g>
   <path style="color:#000000" d="m7089 1266v8.076c0 6.862-5.562 12.42-12.42 12.42h-231.1c-6.862 0-12.42-5.563-12.42-12.42v-8.076h103.8c.8517 3.82 4.256 6.057 8.332 6.057h31.68c4.076 0 7.481-2.237 8.332-6.057h103.8zm-38.62-132.9h-178.7v106.9h178.7v-106.9m16.77 123.6h-212.3v-128c0-6.862 5.562-12.42 12.42-12.42h187.4c6.862 0 12.42 5.562 12.42 12.42v128z" fill="#144431"/>
   <path style="color:#000000" d="m6983 1170c0-11.64-9.437-21.08-21.08-21.08s-21.08 9.438-21.08 21.08 9.225 25.17 21.08 45.47c11.85-20.3 21.08-33.83 21.08-45.47zm-28.64-.5114c0-4.175 3.384-7.559 7.56-7.559 4.175 0 7.56 3.384 7.56 7.559s-3.384 7.559-7.56 7.559c-4.175 0-7.56-3.384-7.56-7.559z" fill="#6bc73d"/>
   <path style="color:#000000" d="m6988 1201h-11.06c-1.055 1.823-2.161 3.702-3.313 5.647h10.9l2.512 4.999h-16.38c-.5505.9278-1.108 1.869-1.672 2.823h7.047l2.562 6.19h-31.26l2.69-6.19h4.883c-.5636-.9545-1.121-1.895-1.672-2.823h-10.1l-2.03-4.999h9.158c-1.152-1.944-2.258-3.823-3.313-5.647h-11.06l-12.72 25.31h77.55zm-43.75 19.66h-11.92l6.317-12.57 2.591 6.38h5.706zm34.84-6.19h9.363l3.111 6.19h-9.912z" fill="#4a8b29"/>
  </g>
  <rect style="color:#000000" fill-rule="evenodd" height="124.7" width="91.97" y="1135" x="7127" fill="#fff"/>
  <g>
   <path style="color:#000000" d="m7192 1181c0-10.93-8.86-19.79-19.79-19.79s-19.79 8.861-19.79 19.79 8.661 23.63 19.79 42.69c11.13-19.06 19.79-31.76 19.79-42.69zm-26.89-.4801c0-3.92 3.178-7.097 7.097-7.097 3.92 0 7.097 3.177 7.097 7.097s-3.178 7.097-7.097 7.097c-3.92 0-7.097-3.178-7.097-7.097z" fill="#6bc73d"/>
   <path style="color:#000000" d="m7234 1265v-134.4c0-6.827-5.534-12.36-12.36-12.36h-97.54c-6.827 0-12.36 5.534-12.36 12.36v134.4c0 6.827 5.534 12.36 12.36 12.36h97.54c6.827 0 12.36-5.534 12.36-12.36zm-106.8-5.022v-124.4h91.36v124.4h-91.36zm42.4 8.788c0-1.813 1.47-3.283 3.284-3.283s3.283 1.47 3.283 3.283c0 1.814-1.47 3.284-3.283 3.284s-3.284-1.47-3.284-3.284z" fill="#144431"/>
   <path style="color:#000000" d="m7197 1210h-10.39c-.9901 1.712-2.029 3.476-3.11 5.301h10.23l2.358 4.693h-15.37c-.5169.8711-1.04 1.755-1.569 2.651h6.616l2.405 5.812h-29.35l2.526-5.812h4.585c-.5291-.8961-1.052-1.779-1.57-2.651h-9.478l-1.906-4.693h8.598c-1.081-1.826-2.12-3.59-3.11-5.302h-10.39l-11.94 23.76h72.81zm-41.08 18.46h-11.2l5.931-11.8 2.433 5.99h5.357zm32.71-5.812h8.79l2.921 5.812h-9.306z" fill="#4a8b29"/>
  </g>
  <rect style="color:#000000" fill-rule="evenodd" height="76.17" width="48.39" y="1197" x="7079" fill="#fff"/>
  <g>
   <path style="color:#000000" d="m7125 1178h-43.63c-5.044 0-9.133 4.089-9.133 9.133v95.75c0 5.044 4.088 9.133 9.133 9.133h43.63c5.044 0 9.133-4.089 9.133-9.133v-95.75c0-5.044-4.088-9.133-9.133-9.133zm-26.66 8.364h10.24c.6114 0 1.107.4957 1.107 1.107 0 .6114-.4956 1.107-1.107 1.107h-10.24c-.6113 0-1.107-.4956-1.107-1.107 0-.6112.4957-1.107 1.107-1.107zm5.12 100.4c-2.446 0-4.428-1.982-4.428-4.428s1.982-4.428 4.428-4.428c2.445 0 4.428 1.982 4.428 4.428s-1.983 4.428-4.428 4.428zm23.73-13.65h-48.01v-76.24h48.01v76.24z" fill="#144431"/>
   <path style="color:#000000" d="m7113 1226c0-5.52-4.474-9.994-9.994-9.994s-9.994 4.475-9.994 9.994c0 5.52 4.374 11.93 9.994 21.56 5.62-9.624 9.994-16.04 9.994-21.56zm-13.58-.2424c0-1.98 1.605-3.584 3.584-3.584 1.98 0 3.584 1.605 3.584 3.584s-1.605 3.584-3.584 3.584c-1.98 0-3.584-1.605-3.584-3.584z" fill="#6bcc38"/>
   <path style="color:#000000" d="m7116 1241h-5.246c-.5.8645-1.024 1.755-1.571 2.677h5.166l1.191 2.37h-7.764c-.261.4399-.5254.8861-.7926 1.339h3.342l1.214 2.935h-14.82l1.276-2.935h2.315c-.2673-.4525-.5316-.8986-.7927-1.339h-4.787l-.9624-2.37h4.342c-.546-.9219-1.07-1.813-1.571-2.677h-5.246l-6.03 12h36.77zm-20.74 9.321h-5.654l2.995-5.96 1.229 3.025h2.705zm16.52-2.935h4.439l1.475 2.935h-4.7z" stroke-width="2.109" fill="#4a8b29"/>
  </g>
 </g>
</svg>
